# xmcd
#
# Track frame offsets:
#	150
#	6239
#	25103
#	43344
#	61384
#	80450
#	102388
#	123188
#	143851
#	160584
#	179872
#	189644
#	201316
#	228004
#	247617
#	266282
#	285534
#	304467
#	328124
#
# Disc length: 4630 seconds
#
# Revision: 5
# Processed by: cddbd v1.5.1PL2 Copyright (c) Steve Scherf et al.
# Submitted via: MusicWizard 6.0.1
#
DISCID=09121413
DTITLE=Snoop Dogg - Tha Last Meal
DYEAR=2000
DGENRE=Hip-Hop
TTITLE0=Intro
TTITLE1=Hennesey N Buddah
TTITLE2=Snoop Dogg (What's My Name Pt. 2)
TTITLE3=True Lies
TTITLE4=Wrong Idea
TTITLE5=Go Away
TTITLE6=Set It Off
TTITLE7=Stacey Adams
TTITLE8=Lay Low
TTITLE9=Bring It On
TTITLE10=Game Court
TTITLE11=Issues
TTITLE12=Brake Fluid (Bitch Pump Yo Brakes)
TTITLE13=Ready 2 Ryde
TTITLE14=Loosen' Control
TTITLE15=I Can't Swim
TTITLE16=Leave Me Alone
TTITLE17=Back Up Off Me
TTITLE18=Y'all Gone Miss Me
EXTD=YEAR: 2000 ID3G: 15
EXTT0=
EXTT1=
EXTT2=
EXTT3=
EXTT4=
EXTT5=
EXTT6=
EXTT7=
EXTT8=
EXTT9=
EXTT10=
EXTT11=
EXTT12=
EXTT13=
EXTT14=
EXTT15=
EXTT16=
EXTT17=
EXTT18=
PLAYORDER=
